# xmcd
#
# Track frame offsets: 
#        150
#        15832
#        34620
#        63365
#        82280
#        98330
#        120230
#        133132
#        154750
#        173915
#
# Disc length: 2591 seconds
#
# Revision: 3
# Processed by: cddbd v1.5.2PL0 Copyright (c) Steve Scherf et al.
# Submitted via: ExactAudioCopy v0.90b4
#
DISCID=6f0a1d0a
DTITLE=Eagles - Their Greatest Hits
DYEAR=1976
DGENRE=
TTITLE0=Take It Easy
TTITLE1=Witchy Woman
TTITLE2=Lyin' Eyes
TTITLE3=Already Gone
TTITLE4=Desperado
TTITLE5=One Of These Nights
TTITLE6=Tequila Sunrise
TTITLE7=Take It To The Limit
TTITLE8=Peacefull, Easy Feeling
TTITLE9=Best Of My Love
EXTD=1976 Elektra/Asylum/Monesuch Records\nProduced by Glyn Johns for 
EXTD=Interglobal Records\nProduced by Bill Szymczyk for Pandora Produc
EXTD=tions Ltd.\n
EXTT0=
EXTT1=
EXTT2=
EXTT3=
EXTT4=
EXTT5=
EXTT6=
EXTT7=
EXTT8=
EXTT9=
PLAYORDER=
